<svg xmlns="http://www.w3.org/2000/svg" viewBox="0 0 214.088 214.088" fill="#EB0029">
    <path
        d="M213.32,133.029c-0.844-5.918-2.479-13.477-4.224-17.017c-1.512-3.067-3.518-3.5-4.95-3.305    c-1.424,0.188-3.262,1.115-3.935,4.478c-0.878,4.388-2.71,7.807-4.193,10.037c-3.019-3.023-7.142-4.7-11.817-4.7    c-20.167,0-57.708,0-80.57-39.193c-12.4-21.256-12.898-30.894-13.261-37.931c-0.348-6.719-0.623-12.023-9.54-20.939    c-3.387-3.388-6.482-5.523-9.268-6.805c2.144-4.317,3.667-9.31,1.368-12.344c-0.832-1.101-2.806-2.818-6.704-1.829    c-6.852,1.71-17.471,1.736-17.578,1.736c-1.546,0-2.93,0.963-3.466,2.414c-0.536,1.451-0.112,3.082,1.061,4.085l9.405,8.063    c-5.295,4.904-8.477,14.307-8.477,26.097c0.001,1.085,0.331,33.525,16.629,64.644l-16.133,16.135    c-4.898,4.896-7.594,11.399-7.592,18.305c0.001,5.654,1.835,11.016,5.175,15.462l-3.291,3.291    c-1.469-0.703-3.069-1.112-4.744-1.112c-0.011,0-0.022,0-0.033,0.004c-2.953,0.007-5.734,1.165-7.83,3.266L3.258,191.964    C1.16,194.06,0.004,196.846,0,199.808c-0.006,2.966,1.147,5.752,3.24,7.844c2.096,2.096,4.877,3.251,7.83,3.251    c0.011,0,0.022,0,0.033,0c2.951-0.007,5.734-1.169,7.83-3.266l26.099-26.095c3.406-3.41,4.093-8.479,2.143-12.597l3.303-3.302    c4.442,3.332,9.805,5.161,15.465,5.161c0,0,0.002,0,0.004,0c6.914,0,13.412-2.688,18.298-7.574l13.803-13.805    c15.168,10.145,34.802,17.14,60.374,18.088c0.978,0.036,1.943,0.054,2.898,0.054c16.957,0,30.083-5.69,36.269-15.819    c0.516-0.845,0.974-1.709,1.374-2.586c2.5,1.787,5.285,3.059,7.905,3.059c1.849,0,3.612-0.628,5.122-2.14    C212.975,149.097,215.285,146.788,213.32,133.029z M39.805,176.318l-26.097,26.095c-0.707,0.707-1.64,1.097-2.627,1.101    c-0.004,0-0.007,0-0.011,0c-0.978,0-1.901-0.386-2.603-1.086c-0.697-0.697-1.079-1.624-1.077-2.609c0-0.992,0.39-1.927,1.093-2.63    l26.095-26.095h0.002c0.711-0.711,1.736-0.971,2.636-1.104c0.98,0,1.903,0.386,2.603,1.086    C41.259,172.515,41.254,174.868,39.805,176.318z M66.301,11.035c-0.475,1.444-1.32,3.331-2.252,5.011    c-0.433,0.022-0.854,0.061-1.258,0.121l-4.674-4.007C60.78,11.93,63.665,11.577,66.301,11.035z M47.715,147.506    c-0.117-0.843-0.25-1.683-0.25-2.548c-0.001-4.932,1.926-9.58,5.427-13.08l14.667-14.669c1.291,2.126,2.688,4.224,4.148,6.304    L47.715,147.506z M50.534,155.137l25.679-25.68c0.777,0.958,1.551,1.917,2.37,2.856l-25.699,25.699    C51.995,157.125,51.214,156.16,50.534,155.137z M79.018,158.006c-3.489,3.489-8.131,5.409-13.075,5.409    c-2.343,0-4.608-0.463-6.724-1.288l24.41-24.41c2.583,2.558,5.399,4.984,8.361,7.316L79.018,158.006z M193.07,143.77l-0.004,0.004    l0.002,0.002c-0.395,1.396-0.974,2.787-1.786,4.118c-5.102,8.358-17.008,12.8-32.586,12.237    c-21.708-0.805-40.235-6.122-55.479-15.875l9.758-9.759l-5.225-5.225l-10.66,10.66c-2.932-2.246-5.715-4.691-8.37-7.307    l11.273-11.273l-5.225-5.225l-11.11,11.109c-0.805-0.931-1.578-1.903-2.353-2.873l10.849-10.849l-5.225-5.225l-10.063,10.064    c-1.408-2.059-2.757-4.193-4.05-6.403l8.805-8.806l-5.225-5.225l-7.248,7.249c-0.527-1.055-1.081-2.073-1.585-3.158    C54.602,74.092,54.559,46.168,54.561,45.89c0-0.007,0-0.014,0-0.018c0-10.161,2.664-18.336,6.731-21.258l0.688,0.59l1.381-1.611    c0.439-0.106,0.885-0.175,1.338-0.175c3.976,0,8.395,3.753,10.906,6.264c6.91,6.91,7.069,9.981,7.384,16.093    c0.402,7.794,0.954,18.467,14.258,41.276c25.002,42.86,66.844,42.86,86.953,42.86c3.576,0,6.441,1.595,8.065,4.489    C193.774,137.09,194.007,140.447,193.07,143.77z M206.569,144.803c-1.104-0.153-3.638-1.659-5.596-3.58    c0.153-2.444-0.155-4.841-0.869-7.1c1.122-1.35,2.955-3.823,4.608-7.315C206.109,133.339,207.206,141.855,206.569,144.803z"/>
</svg>