<svg xmlns="http://www.w3.org/2000/svg" xmlns:xlink="http://www.w3.org/1999/xlink"
    viewBox="0 0 206.776 206.776" fill="#EB0029">
    <path
        d="M205.729,121.48c-2.07-7.725-6.93-13.813-13.684-17.143c-2.09-1.033-4.286-1.721-6.54-2.136     c8.018-10.034,9.904-24.781,3.752-36.354c-3.753-7.058-9.86-11.9-17.192-13.625c-7.298-1.732-14.882-0.133-21.636,4.709     c-0.132,0.112-13.618,11.694-64.558,38.782c-50.61,26.907-67.995,31.753-68.156,31.797c-0.132,0.036-0.263,0.079-0.392,0.126     c-6.987,2.71-12.387,7.729-15.205,14.13c-2.73,6.196-2.824,13.232-0.265,19.806c0.069,0.176,0.183,0.315,0.275,0.474     c-1.149,4.416-1.11,9.178,0.167,13.945c3.783,14.123,17.621,24.295,31.93,24.295c1.422,0,2.849-0.101,4.271-0.307     c1.117-0.112,27.856-2.901,75.078-15.552c47.224-12.654,71.775-23.613,72.623-23.999     C201.157,154.591,209.918,137.119,205.729,121.48z M8.881,144.743c2.001-4.543,5.887-8.144,10.953-10.154     c2.27-0.646,20.356-6.221,69.507-32.352c51.686-27.485,65.392-39.255,65.664-39.515c4.709-3.363,10.165-4.539,15.366-3.309     c5.23,1.23,9.622,4.749,12.362,9.905c5.863,11.027,2.317,25.778-7.904,32.879c-0.156,0.108-0.243,0.267-0.377,0.394     c-1.513,0.371-3.029,0.834-4.545,1.465c-0.155,0.083-16.261,8.433-71.634,23.267c-55.366,14.837-73.393,15.646-73.559,15.653     c-0.137,0.004-0.274,0.014-0.409,0.033c-6.849,0.989-12.726,4.149-16.883,8.984C7.406,149.491,7.875,147.031,8.881,144.743z      M183.336,153.616c-0.245,0.112-25.101,11.193-71.674,23.674c-46.571,12.478-73.639,15.31-74.068,15.357     c-12.284,1.797-24.937-6.538-28.161-18.568c-1.488-5.557-0.707-11.045,2.201-15.454c2.941-4.46,7.749-7.394,13.549-8.274     c2.358-0.119,21.233-1.483,75.002-15.891c56.546-15.148,72.547-23.533,72.872-23.728c5.342-2.208,10.926-2.125,15.718,0.231     c4.819,2.378,8.305,6.791,9.816,12.431C201.837,135.506,195.072,149.034,183.336,153.616z" />
    <path
        d="M64.168,74.782c-0.734,2.865-3.72,4.193-3.72,4.193c-1.887,0.772-2.793,2.93-2.021,4.817     c0.585,1.433,1.965,2.299,3.423,2.299c0.466,0,0.938-0.086,1.396-0.274c0.644-0.263,6.352-2.76,8.045-9.06     c1.366-5.091-0.388-10.836-5.214-17.075c-2.699-3.486-3.693-6.434-2.957-8.765c1.059-3.356,5.658-5.449,7.35-5.975     c1.95-0.592,3.055-2.649,2.466-4.601c-0.59-1.952-2.661-3.053-4.602-2.475c-0.998,0.303-9.804,3.154-12.247,10.778     c-1.533,4.788-0.139,10.028,4.144,15.563C63.498,68.427,64.861,72.086,64.168,74.782z" />
    <path
        d="M83.517,43.563c-0.734,2.861-3.72,4.189-3.72,4.189c-1.887,0.772-2.793,2.93-2.021,4.817     c0.585,1.433,1.965,2.299,3.423,2.299c0.466,0,0.938-0.086,1.396-0.274c0.644-0.263,6.352-2.76,8.045-9.06     c1.366-5.091-0.39-10.836-5.216-17.075c-2.697-3.486-3.693-6.434-2.957-8.765c1.061-3.356,5.66-5.449,7.352-5.975     c1.95-0.592,3.055-2.649,2.466-4.601c-0.588-1.956-2.657-3.049-4.602-2.475c-0.998,0.303-9.804,3.154-12.247,10.778     c-1.533,4.788-0.141,10.024,4.142,15.563C82.848,37.205,84.208,40.864,83.517,43.563z" />
</svg>